<?xml version="1.0" encoding="UTF-8" standalone="no"?>
<!-- Generator: Adobe Illustrator 16.0.0, SVG Export Plug-In . SVG Version: 6.00 Build 0)  -->

<svg
   xmlns:dc="http://purl.org/dc/elements/1.1/"
   xmlns:cc="http://creativecommons.org/ns#"
   xmlns:rdf="http://www.w3.org/1999/02/22-rdf-syntax-ns#"
   xmlns:svg="http://www.w3.org/2000/svg"
   xmlns="http://www.w3.org/2000/svg"
   xmlns:xlink="http://www.w3.org/1999/xlink"
   xmlns:sodipodi="http://sodipodi.sourceforge.net/DTD/sodipodi-0.dtd"
   xmlns:inkscape="http://www.inkscape.org/namespaces/inkscape"
   version="1.1"
   id="Ebene_1"
   x="0px"
   y="0px"
   width="14.4px"
   height="14.4px"
   viewBox="0 0 14.4 14.4"
   enable-background="new 0 0 14.4 14.4"
   xml:space="preserve"
   inkscape:version="0.91 r13725"
   sodipodi:docname="ic_app_protection.svg"><metadata
   id="metadata25"><rdf:RDF><cc:Work
       rdf:about=""><dc:format>image/svg+xml</dc:format><dc:type
         rdf:resource="http://purl.org/dc/dcmitype/StillImage" /></cc:Work></rdf:RDF></metadata><defs
   id="defs23" /><sodipodi:namedview
   pagecolor="#ffffff"
   bordercolor="#666666"
   borderopacity="1"
   objecttolerance="10"
   gridtolerance="10"
   guidetolerance="10"
   inkscape:pageopacity="0"
   inkscape:pageshadow="2"
   inkscape:window-width="1280"
   inkscape:window-height="737"
   id="namedview21"
   showgrid="false"
   inkscape:zoom="16.388889"
   inkscape:cx="0.76271169"
   inkscape:cy="7.1389827"
   inkscape:window-x="-4"
   inkscape:window-y="-4"
   inkscape:window-maximized="1"
   inkscape:current-layer="Ebene_1" />
<g
   id="g3">
	<defs
   id="defs5">
		<rect
   id="SVGID_1_"
   width="14.4"
   height="14.4" />
	</defs>
	<clipPath
   id="SVGID_2_">
		<use
   xlink:href="#SVGID_1_"
   overflow="visible"
   id="use9" />
	</clipPath>
</g>
<g
   id="g11"
   style="fill:#000000;opacity:1">
	<defs
   id="defs13">
		<rect
   id="SVGID_3_"
   width="14.4"
   height="14.4" />
	</defs>
	<clipPath
   id="SVGID_4_">
		<use
   xlink:href="#SVGID_3_"
   overflow="visible"
   id="use17" />
	</clipPath>
	<path
   clip-path="url(#SVGID_4_)"
   d="M14.2,5.704c0-0.831-0.674-1.504-1.504-1.504H1.704c-0.83,0-1.503,0.673-1.503,1.504v2.992   c0,0.831,0.673,1.504,1.503,1.504h10.993c0.83,0,1.504-0.673,1.504-1.504V5.704z M4.577,8.189L3.833,8.731L3.157,7.683L2.482,8.731   L1.73,8.189l0.792-0.964L1.313,6.907l0.287-0.881l1.162,0.436L2.689,5.2h0.928L3.544,6.462l1.163-0.445l0.287,0.885L3.79,7.222   L4.577,8.189z M8.575,8.189L7.831,8.731L7.155,7.683L6.481,8.731L5.729,8.189l0.792-0.964L5.313,6.907l0.286-0.881l1.163,0.436   L6.688,5.2h0.928L7.544,6.462l1.162-0.445l0.286,0.885l-1.204,0.32L8.575,8.189z M12.574,8.189L11.83,8.731l-0.677-1.048   L10.48,8.731L9.729,8.189l0.792-0.964L9.312,6.907l0.286-0.881l1.163,0.436L10.688,5.2h0.928l-0.072,1.262l1.161-0.445l0.287,0.885   l-1.204,0.32L12.574,8.189z"
   id="path19"
   style="fill:#000000" />
</g>
</svg>